<?xml version="1.0" standalone="no"?>
<!DOCTYPE svg PUBLIC "-//W3C//DTD SVG 20010904//EN"
 "http://www.w3.org/TR/2001/REC-SVG-20010904/DTD/svg10.dtd">
<svg version="1.0" xmlns="http://www.w3.org/2000/svg"
 width="238.000000pt" height="472.000000pt" viewBox="0 0 238.000000 472.000000"
 preserveAspectRatio="xMidYMid meet">
<metadata>
Created by potrace 1.16, written by Peter Selinger 2001-2019
</metadata>
<g transform="translate(0.000000,472.000000) scale(0.100000,-0.100000)"
fill="#000000" stroke="none">
<path d="M0 2360 l0 -2360 1190 0 1190 0 0 2360 0 2360 -1190 0 -1190 0 0
-2360z m1289 590 c26 0 155 47 216 78 90 47 219 173 268 262 59 108 82 198 82
325 0 87 -5 126 -23 185 -57 183 -181 328 -358 420 -85 44 -24 26 76 -23 69
-34 102 -59 175 -132 159 -158 230 -334 228 -560 -2 -199 -75 -382 -210 -526
-116 -123 -270 -207 -410 -225 l-53 -6 0 -84 0 -84 44 0 c119 0 284 52 406
128 279 174 441 518 402 859 -26 225 -112 408 -272 578 -67 70 -70 76 -30 47
174 -125 320 -341 382 -567 26 -92 35 -308 18 -413 -49 -302 -223 -557 -488
-711 -108 -63 -262 -112 -399 -126 l-63 -7 0 -119 0 -119 365 0 366 0 -3 -76
-3 -76 -362 1 -363 2 0 -206 0 -205 220 0 220 0 0 -47 c0 -27 3 -65 6 -86 l7
-37 -227 0 -226 0 0 -495 0 -495 -70 0 -70 0 0 458 c0 251 -3 474 -6 494 l-7
38 -219 0 -219 0 3 82 3 83 218 3 217 2 0 206 0 205 -360 -3 -360 -3 0 78 0
77 360 0 360 0 0 119 0 118 -87 12 c-361 46 -657 274 -798 615 -49 119 -70
229 -70 376 0 179 31 312 108 465 67 135 202 292 312 364 l50 33 -49 -43
c-121 -106 -242 -306 -288 -474 -19 -68 -22 -106 -22 -250 0 -156 2 -177 27
-258 109 -353 395 -594 741 -624 l76 -6 0 85 0 85 -51 7 c-182 24 -399 173
-500 342 -183 307 -153 669 78 942 56 65 148 132 246 177 98 45 120 45 31 0
-179 -90 -308 -248 -355 -436 -27 -106 -23 -269 9 -369 42 -130 138 -259 254
-340 68 -48 187 -101 256 -113 l32 -6 0 769 0 769 73 3 72 3 3 -772 c1 -442 6
-773 11 -773z"/>
</g>
</svg>
